<?xml version="1.0" encoding="utf-8"?>
<!-- Generator: Adobe Illustrator 21.0.0, SVG Export Plug-In . SVG Version: 6.00 Build 0)  -->
<svg version="1.1"
	 id="svg5" inkscape:version="0.92.1 r15371" sodipodi:docname="logo.svg" xmlns:cc="http://creativecommons.org/ns#" xmlns:dc="http://purl.org/dc/elements/1.1/" xmlns:inkscape="http://www.inkscape.org/namespaces/inkscape" xmlns:rdf="http://www.w3.org/1999/02/22-rdf-syntax-ns#" xmlns:sodipodi="http://sodipodi.sourceforge.net/DTD/sodipodi-0.dtd" xmlns:svg="http://www.w3.org/2000/svg"
	 xmlns="http://www.w3.org/2000/svg" xmlns:xlink="http://www.w3.org/1999/xlink" x="0px" y="0px" viewBox="0 0 800 600"
	 style="enable-background:new 0 0 800 600;" xml:space="preserve">
<style type="text/css">
	.st0{fill:#FFFFFF;}
</style>
<sodipodi:namedview  bordercolor="#666666" borderopacity="1" gridtolerance="10" guidetolerance="10" id="namedview7" inkscape:current-layer="svg5" inkscape:cx="532" inkscape:cy="532" inkscape:pageopacity="0" inkscape:pageshadow="2" inkscape:window-height="1005" inkscape:window-maximized="1" inkscape:window-width="1920" inkscape:window-x="-9" inkscape:window-y="-9" inkscape:zoom="0.22180451" objecttolerance="10" pagecolor="#ffffff" showgrid="false">
	</sodipodi:namedview>
<g>
	<path class="st0" d="M321.8,399.7c-30.8,4.6-62.8-18.8-57.2-52.1c2.5-14.5,12.8-26.8,26.7-31.8c10.9-3.9,23.3-2.6,34.5-1.6
		c16.2,1.4,31.7,5.4,46.4,12.4c15,7.1,28.5,16.8,43.2,24.4c11.2,5.8,23.1,10.5,35.4,13.2c14,3.2,34.2,6.4,47.8,0
		c5.3-2.5,8.3-8.2,5.9-13.9c-2.4-5.9-7.4-6.7-12.9-6.4c-11.9,0.6-23.2-0.8-34.6-4.5c-24.4-7.8-43.2-24.5-65.2-37
		c-46.9-26.5-128.3-39.1-154.8,22c-13.6,31.3-3.7,69.2,25.2,88.1c13.9,9.1,31.1,13,47.5,10c6.2-1.1,17-3.3,20.7-9
		C334.7,407.3,329.4,398.6,321.8,399.7z"/>
	<path class="st0" d="M567.9,342.3c-5.3-30.3-31-55-61.9-57.1c-10.1-0.7-31.9,0.3-37.2,10.8c-8.6,17,23.4,12,30.4,13.6
		c29.9,6.7,48.2,43.1,28.6,69.2c-17,22.6-50.4,18.2-74.5,12.5c-29.7-7-52.7-27.1-80.3-38.8c-15.3-6.5-31.7-10.7-48.3-11
		c-9.3-0.1-34.2,0-29.9,15.8c2.9,10.7,15,6.9,23,7.3c15,0.7,29.6,5.5,42.9,12.1c23.4,11.6,42.9,29.4,67.3,39.4
		c27.3,11.1,64.5,18.1,93.2,7.4C553.7,411.2,573.9,376.5,567.9,342.3z"/>
	<path class="st0" d="M355.6,266c18.6,12.4,50.8,8.7,62.2-12.1c3.3-6,5.8-14.3,3.7-21.1c-3.1-10.5-15.9-15.1-25.1-9.2
		c-4.3,2.8-7.2,7.6-7.5,12.8c-0.2,2.3,1.8,6.2,1.4,8.1c-0.6,2.7-3.9,3.6-7.4,4.3c-8.5,1.5-16.6-2.2-19.8-10.4
		c-7.8-19.8,11.3-39.9,30.1-41.9c23.2-2.4,45.3,13.5,48.6,37c2,14.4-4.1,23.3-8.7,36c-3.9,10.6,6.3,21.6,17.2,17.7
		c10.7-3.8,17.2-21.1,20-31c3.6-12.6,3.8-26,0.6-38.7c-6.5-25.5-27.4-45.8-52.6-52.8c-28.2-7.8-59.7,4.4-76,28.5
		C326.4,216.8,331.8,249.7,355.6,266z"/>
</g>
</svg>
